<svg xmlns="http://www.w3.org/2000/svg" version="1.1" xmlns:xlink="http://www.w3.org/1999/xlink" xmlns:svgjs="http://svgjs.dev/svgjs" width="1000" height="1125" viewBox="0 0 1000 1125"><g transform="matrix(1,0,0,1,0,0)"><svg viewBox="0 0 320 360" data-background-color="#046380" preserveAspectRatio="xMidYMid meet" height="1125" width="1000" xmlns="http://www.w3.org/2000/svg" xmlns:xlink="http://www.w3.org/1999/xlink"><g id="tight-bounds" transform="matrix(1,0,0,1,0,0)"><svg viewBox="0 0 320 360" height="360" width="320"><g><svg></svg></g><g><svg viewBox="0 0 320 360" height="360" width="320"><g><path xmlns="http://www.w3.org/2000/svg" d="M297.491 100.645c-12.426-21.51-112.674-79.355-137.491-79.355-24.817 0-125.028 57.845-137.491 79.355-11.591 20.02-11.591 138.726 0 158.746 12.463 21.474 112.674 79.319 137.491 79.319 24.817 0 125.064-57.845 137.491-79.355 11.591-20.02 11.591-138.69 0-158.71zM309.481 93.705c-14.461-24.998-119.469-86.295-149.481-86.295-30.012 0-135.02 61.297-149.481 86.295-14.025 24.199-14.025 148.391 0 172.59 14.461 24.998 119.469 86.295 149.481 86.295 30.012 0 135.02-61.297 149.481-86.259 14.025-24.235 14.025-148.427 0-172.626zM300.906 261.353c-12.753 22.055-115.472 81.317-140.906 81.318-25.434 0-128.153-59.298-140.906-81.354-11.881-20.529-11.881-142.178 0-162.707 12.753-22.019 115.472-81.281 140.906-81.281 25.434 0 128.153 59.298 140.906 81.318 11.881 20.529 11.881 142.178 0 162.706z" fill="#ffffff" fill-rule="nonzero" stroke="none" stroke-width="1" stroke-linecap="butt" stroke-linejoin="miter" stroke-miterlimit="10" stroke-dasharray="" stroke-dashoffset="0" font-family="none" font-weight="none" font-size="none" text-anchor="none" style="mix-blend-mode: normal" data-fill-palette-color="tertiary"></path></g><g transform="matrix(1,0,0,1,48,148.47766397763695)"><svg viewBox="0 0 224 63.0446720447261" height="63.0446720447261" width="224"><g><svg viewBox="0 0 224 63.0446720447261" height="63.0446720447261" width="224"><g><svg viewBox="0 0 360.47349346742595 101.4550588235294" height="63.0446720447261" width="224"><g transform="matrix(1,0,0,1,0,14.021647058823532)"><svg viewBox="0 0 224 73.41176470588233" height="73.41176470588233" width="224"><g><svg viewBox="0 0 224 73.41176470588233" height="73.41176470588233" width="224"><g><svg viewBox="0 0 224 73.41176470588233" height="73.41176470588233" width="224"><g transform="matrix(1,0,0,1,0,0)"><svg width="224" viewBox="0.800000011920929 -36.5 113.03999328613281 37.04999923706055" height="73.41176470588233" data-palette-color="#046380"><path d="M0.8-1.65L1.6-3.7Q2.85-2.9 4.58-2.35 6.3-1.8 8.5-1.8L8.5-1.8Q11.35-1.8 13.08-2.78 14.8-3.75 15.68-5.7 16.55-7.65 16.85-10.48 17.15-13.3 17.15-17L17.15-17 17.15-35.5 19.7-35.5 19.7-17.45Q19.7-13.45 19.33-10.15 18.95-6.85 17.85-4.42 16.75-2 14.53-0.73 12.3 0.55 8.6 0.55L8.6 0.55Q6.2 0.55 4.3 0 2.4-0.55 0.8-1.65L0.8-1.65ZM27.4-11L27.4-11 27.4-26 29.9-26 29.9-11.35Q29.9-6.5 31.52-4.13 33.15-1.75 36.45-1.75L36.45-1.75Q38.65-1.75 40.67-2.73 42.7-3.7 44.25-5.48 45.8-7.25 46.55-9.6L46.55-9.6 46.55-26 49.05-26 49.05-3.3Q49.05-2.7 49.32-2.4 49.6-2.1 50.1-2.05L50.1-2.05 50.1 0Q49.6 0.05 49.32 0.05 49.05 0.05 48.85 0L48.85 0Q48-0.1 47.45-0.73 46.9-1.35 46.85-2.25L46.85-2.25 46.8-6.15Q45.1-3.05 42.12-1.28 39.15 0.5 35.7 0.5L35.7 0.5Q31.6 0.5 29.5-2.4 27.4-5.3 27.4-11ZM53.8 0L68.9-35.5 71.09-35.5 86.09 0 83.4 0 78.45-11.7 61.5-11.7 56.55 0 53.8 0ZM62.1-13.8L77.75-13.8 70-32.4 62.1-13.8ZM88.19-12.95L88.19-12.95Q88.19-16.6 89.74-19.65 91.29-22.7 93.99-24.58 96.69-26.45 100.14-26.45L100.14-26.45Q103.54-26.45 106.17-24.65 108.79-22.85 110.29-20.35L110.29-20.35 110.29-36.5 112.79-36.5 112.79-3.3Q112.79-2.7 113.07-2.4 113.34-2.1 113.84-2.05L113.84-2.05 113.84 0Q113.04 0.1 112.64 0.05L112.64 0.05Q111.74-0.1 111.14-0.8 110.54-1.5 110.54-2.3L110.54-2.3 110.54-5.2Q108.94-2.6 106.24-1.05 103.54 0.5 100.69 0.5L100.69 0.5Q97.99 0.5 95.69-0.63 93.39-1.75 91.72-3.65 90.04-5.55 89.12-7.95 88.19-10.35 88.19-12.95ZM110.29-8.75L110.29-8.75 110.29-17.3Q109.59-19.2 108.04-20.78 106.49-22.35 104.54-23.28 102.59-24.2 100.69-24.2L100.69-24.2Q98.44-24.2 96.62-23.25 94.79-22.3 93.47-20.7 92.14-19.1 91.44-17.07 90.74-15.05 90.74-12.9L90.74-12.9Q90.74-10.7 91.54-8.68 92.34-6.65 93.77-5.08 95.19-3.5 97.07-2.63 98.94-1.75 101.14-1.75L101.14-1.75Q102.49-1.75 104.02-2.3 105.54-2.85 106.92-3.83 108.29-4.8 109.22-6.08 110.14-7.35 110.29-8.75Z" opacity="1" transform="matrix(1,0,0,1,0,0)" fill="#046380" class="undefined-text-0" data-fill-palette-color="quaternary" id="text-0"></path></svg></g></svg></g></svg></g></svg></g><g transform="matrix(1,0,0,1,241.33075576470588,0)"><svg viewBox="0 0 119.14273770272008 101.4550588235294" height="101.4550588235294" width="119.14273770272008"><g><svg xmlns="http://www.w3.org/2000/svg" xmlns:xlink="http://www.w3.org/1999/xlink" version="1.1" x="0" y="0" viewBox="32.29999923706055 46.5 191.3000030517578 162.90000915527344" style="enable-background:new 0 0 256 256;" xml:space="preserve" height="101.4550588235294" width="119.14273770272008" class="icon-icon-0" data-fill-palette-color="quaternary" id="icon-0"><g fill="#046380" data-fill-palette-color="quaternary"><path d="M84.5 82.1c9 0 16.4-6.7 17.6-15.4h30.4l13 18.8c0.5 0.7 1.2 1 2 1h73.7c1.3 0 2.4-1.1 2.4-2.4 0-1.3-1.1-2.4-2.4-2.4h-72.5l-13-18.8c-0.5-0.7-1.2-1-2-1H102c-1.2-8.7-8.6-15.4-17.6-15.4-9.8 0-17.8 8-17.8 17.8S74.7 82.1 84.5 82.1zM84.5 51.4c7.1 0 12.9 5.8 12.9 12.9 0 0 0 0 0 0 0 0 0 0 0 0 0 7.1-5.8 12.9-12.9 12.9-7.1 0-12.9-5.8-12.9-12.9S77.3 51.4 84.5 51.4z" fill="#046380" data-fill-palette-color="quaternary"></path><path d="M221.2 109.5h-76.7c-1.2-8.7-8.6-15.4-17.6-15.4-9.8 0-17.8 8-17.8 17.8s8 17.8 17.8 17.8c9 0 16.4-6.7 17.6-15.4h76.7c1.3 0 2.4-1.1 2.4-2.4C223.6 110.6 222.5 109.5 221.2 109.5zM126.9 124.9c-7.1 0-12.9-5.8-12.9-12.9S119.8 99 126.9 99c7.1 0 12.9 5.8 12.9 12.9 0 0 0 0 0 0s0 0 0 0C139.8 119.1 134 124.9 126.9 124.9z" fill="#046380" data-fill-palette-color="quaternary"></path><path d="M221.2 140.3h-66.9c-0.8 0-1.6 0.4-2.1 1.1l-9.4 15h-41.2l-10.2-19c-0.4-0.8-1.2-1.3-2.1-1.3H67.7c-1.2-8.7-8.6-15.4-17.6-15.4-9.8 0-17.8 8-17.8 17.8s8 17.8 17.8 17.8c9 0 16.4-6.7 17.6-15.4h20.1l10.2 19c0.4 0.8 1.2 1.3 2.1 1.3h44c0.8 0 1.6-0.4 2.1-1.1l9.4-15h65.5c1.3 0 2.4-1.1 2.4-2.4C223.6 141.4 222.5 140.3 221.2 140.3zM50.1 151.6c-7.1 0-12.9-5.8-12.9-12.9s5.8-12.9 12.9-12.9c7.1 0 12.9 5.8 12.9 12.9 0 0 0 0 0 0s0 0 0 0C63.1 145.8 57.3 151.6 50.1 151.6z" fill="#046380" data-fill-palette-color="quaternary"></path><path d="M221.2 168.6h-38.6c-0.9 0-1.7 0.5-2.1 1.2l-11.4 19.4h-58.2c-1.2-8.7-8.6-15.4-17.6-15.4-9.8 0-17.8 8-17.8 17.8 0 9.8 8 17.8 17.8 17.8 9 0 16.4-6.7 17.6-15.4h59.6c0.9 0 1.7-0.5 2.1-1.2l11.4-19.4h37.2c1.3 0 2.4-1.1 2.4-2.4C223.6 169.7 222.5 168.6 221.2 168.6zM93.3 204.6c-7.1 0-12.9-5.8-12.9-12.9 0-7.1 5.8-12.9 12.9-12.9 7.1 0 12.9 5.8 12.9 12.9C106.3 198.8 100.5 204.6 93.3 204.6z" fill="#046380" data-fill-palette-color="quaternary"></path></g></svg></g></svg></g></svg></g></svg></g></svg></g></svg></g><defs></defs></svg><rect width="320" height="360" fill="none" stroke="none" visibility="hidden"></rect></g></svg></g></svg>